<?xml version="1.0" encoding="UTF-8" standalone="no"?>
<svg
   width="64.001"
   height="64"
   version="1.1"
   id="svg6"
   sodipodi:docname="Extension.svg"
   xml:space="preserve"
   inkscape:version="1.4 (e7c3feb1, 2024-10-09)"
   xmlns:inkscape="http://www.inkscape.org/namespaces/inkscape"
   xmlns:sodipodi="http://sodipodi.sourceforge.net/DTD/sodipodi-0.dtd"
   xmlns="http://www.w3.org/2000/svg"
   xmlns:svg="http://www.w3.org/2000/svg"><defs
     id="defs6" /><sodipodi:namedview
     id="namedview6"
     pagecolor="#ffffff"
     bordercolor="#000000"
     borderopacity="0.25"
     inkscape:showpageshadow="2"
     inkscape:pageopacity="0.0"
     inkscape:pagecheckerboard="0"
     inkscape:deskcolor="#d1d1d1"
     inkscape:zoom="3.553262"
     inkscape:rotation="4"
     inkscape:cx="47.636486"
     inkscape:cy="3.4397828"
     inkscape:window-width="1816"
     inkscape:window-height="945"
     inkscape:window-x="0"
     inkscape:window-y="44"
     inkscape:window-maximized="0"
     inkscape:current-layer="svg6" /><path
     fill="none"
     d="M0 0h64.001v64H0z"
     id="path1" /><linearGradient
     id="a"
     gradientUnits="userSpaceOnUse"
     x1="32.0025"
     y1="61.9996"
     x2="32.0025"
     y2="2.0004"><stop
       offset="0"
       stop-color="#e20074"
       id="stop1"
       style="stop-color:#fab85c;stop-opacity:1;" /><stop
       offset="0.25819999"
       stop-color="#e50679"
       id="stop2"
       style="stop-color:#fab85c;stop-opacity:1;" /><stop
       offset="0.59600002"
       stop-color="#ef1685"
       id="stop3"
       style="stop-color:#fab85c;stop-opacity:1;" /><stop
       offset="0.97659999"
       stop-color="#fe319a"
       id="stop4"
       style="stop-color:#fab85c;stop-opacity:1;" /><stop
       offset="1"
       stop-color="#ff339c"
       id="stop5"
       style="stop-color:#fab85c;stop-opacity:1;" /></linearGradient><path
     fill="url(#a)"
     d="M62.002 57.5c0 2.475-2.025 4.5-4.5 4.5h-51c-2.475 0-4.5-2.025-4.5-4.5l.001-51c0-2.475 2.025-4.5 4.5-4.5h50.999c2.475 0 4.5 2.025 4.5 4.5v51z"
     id="path5" /><style
     type="text/css"
     id="style1">.st0{fill-rule:evenodd;clip-rule:evenodd;}</style><path
     class="st0"
     d="m 22.374337,21.294019 h 22.730656 c 1.486141,0 1.405743,0.601766 1.27662,2.136633 l -0.845396,10.775744 c -0.143741,1.717589 -0.02193,1.300983 -1.84184,1.561666 l -16.717874,2.126888 0.884376,2.565421 c 7.252858,0 10.75869,0 18.006675,0 0.24363,0.911176 0.574966,2.394881 0.818596,3.410817 h -2.991773 l -0.287484,-1.037863 c -6.042017,0 -8.344318,0 -14.388772,0 -3.301184,-0.05603 -2.969847,0.838086 -3.761644,-2.014818 l -5.6717,-20.618385 h -2.723781 v -1.975838 h 4.77758 c 0.221703,0.830778 0.528676,2.229212 0.735761,3.069735 z m 7.56714,22.248269 c 1.274184,0 2.30961,1.035426 2.30961,2.30961 0,1.27662 -1.03299,2.30961 -2.30961,2.30961 -1.27662,0 -2.30961,-1.03299 -2.30961,-2.30961 0,-1.274184 1.03299,-2.30961 2.30961,-2.30961 z m 9.525923,0 c 1.274184,0 2.30961,1.035426 2.30961,2.30961 0,1.27662 -1.035426,2.30961 -2.30961,2.30961 -1.276619,0 -2.30961,-1.03299 -2.30961,-2.30961 0,-1.274184 1.032991,-2.30961 2.30961,-2.30961 z M 24.364792,28.717417 h 3.67881 L 26.708511,23.13586 c -1.315601,0 -2.611711,-0.0024 -3.881022,-0.0024 l 0.448278,1.6713 0.01462,-0.0024 z m 4.265957,-5.579121 1.335091,5.579121 h 3.542377 l -1.339964,-5.574248 z m 5.464615,0.0073 1.339964,5.571813 h 3.38889 l -1.335091,-5.56694 z m 5.320874,0.0073 1.335091,5.56694 h 3.391326 l 0.37519,-4.473042 c 0.104761,-1.247364 0.324028,-1.089005 -0.884376,-1.089005 -1.378944,-0.0024 -2.789561,-0.0049 -4.217231,-0.0049 z m 4.607039,6.982429 h -2.933302 l 0.96721,4.034508 0.238757,-0.03167 c 1.478832,-0.211957 1.38138,0.126688 1.498323,-1.269311 z m -3.82986,4.290317 -1.028117,-4.290319 h -3.386454 l 1.137751,4.736162 z m -5.143024,0.699218 -1.201095,-4.991974 h -3.544812 l 1.308291,5.459743 z M 29.74901,35.84844 28.382247,30.135323 H 24.7546 l 1.695663,6.163832 z"
     id="path1-3"
     style="stroke-width:0.24363" /></svg>
